<svg width="144" height="73" viewBox="0 0 144 73" fill="none" xmlns="http://www.w3.org/2000/svg">
<g clip-path="url(#clip0_75_4876)">
<path d="M71.0193 72.0803C90.2721 72.0803 105.88 56.4619 105.88 37.1955C105.88 17.9292 90.2721 2.31073 71.0193 2.31073C51.7664 2.31073 36.1589 17.9292 36.1589 37.1955C36.1589 56.4619 51.7664 72.0803 71.0193 72.0803Z" fill="#6CA5C2" stroke="#0F2D44" stroke-width="4" stroke-miterlimit="10"/>
<path d="M68.6873 2.31074C68.6873 2.31074 63.7262 14.4591 69.3412 13.2832C74.9561 12.1072 81.3484 9.62721 82.519 14.0656C83.6895 18.504 85.2579 24.251 87.2149 23.8575C89.1719 23.464 99.1078 24.4752 99.2953 16.7881C99.2953 16.7881 91.1929 1.64727 68.6873 2.31074Z" fill="#6AB666" stroke="#0F2D44" stroke-width="2" stroke-miterlimit="10"/>
<path d="M38.5411 49.8609C38.5411 49.8609 46.3737 56.6008 50.2877 56.6008C54.2017 56.6008 48.7239 48.113 47.5488 44.9787C46.3737 41.8443 54.0737 41.4508 55.1162 39.2316C56.1587 37.0124 53.5524 32.1806 51.0696 29.9614C48.5913 27.7422 49.8945 27.4814 48.7194 22.3887C47.5442 17.2959 42.1259 17.6345 41.9247 17.9411C41.9247 17.9411 31.8242 31.2334 38.5411 49.8609Z" fill="#6AB666" stroke="#0F2D44" stroke-width="2" stroke-miterlimit="10"/>
<path d="M83.5705 69.2663C79.9903 69.916 73.909 64.622 73.909 64.622C73.909 64.2834 58.7284 55.6034 65.9072 51.769C73.0859 47.9346 72.8527 47.4862 72.3223 44.329C71.7919 41.1718 75.9117 34.5188 79.2038 38.3532C82.5006 42.1876 89.4415 52.6704 91.6775 50.3048C93.9134 47.9392 99.9719 44.0041 101.682 47.1476C103.392 50.291 103.15 50.9088 103.15 50.9088C103.15 50.9088 97.2193 66.7863 83.5705 69.2663Z" fill="#6AB666" stroke="#0F2D44" stroke-width="2" stroke-miterlimit="10"/>
<path d="M62.5054 21.6932C63.2141 21.0297 63.6165 20.2839 63.6165 19.4923C63.6165 16.756 58.8565 14.5414 52.981 14.5414C52.039 14.5414 49.8488 16.2664 48.9801 16.3762C48.4497 14.459 46.8356 11.2195 42.9902 10.6384C42.3043 8.23615 39.0441 6.41962 35.1256 6.41962C31.6734 6.41962 31.7602 8.73947 30.6354 10.7162C29.6478 10.5743 25.5737 9.59512 24.4901 9.59512C18.6145 9.59512 13.8545 11.8143 13.8545 14.546C13.8545 15.603 14.5678 16.5776 15.775 17.3829C12.5331 18.2294 10.3429 19.8492 10.3429 21.7023C10.3429 21.7023 17.1741 25.5596 2.53775 26.6532C-3.88654 27.1336 6.63923 29.1789 6.63923 29.1789L91.1334 28.0762C91.1334 28.0762 61.3988 23.9032 62.5099 21.6977L62.5054 21.6932Z" fill="#B2DDEE" stroke="#0F2D44" stroke-width="2" stroke-miterlimit="10"/>
<path d="M117.48 52.0435C117.914 51.6409 118.157 51.1833 118.157 50.7028C118.157 49.0373 115.253 47.6829 111.673 47.6829C111.097 47.6829 109.766 48.7353 109.236 48.7994C108.911 47.6326 107.928 45.6559 105.587 45.3036C105.166 43.8394 103.182 42.7321 100.795 42.7321C98.6916 42.7321 98.7419 44.1459 98.0606 45.3493C97.4616 45.2624 94.9742 44.663 94.3158 44.663C90.7356 44.663 87.8321 46.0128 87.8321 47.6829C87.8321 48.3281 88.2664 48.9229 89.0026 49.4125C87.0273 49.9296 85.6922 50.9133 85.6922 52.0435C85.6922 52.0435 89.8531 54.3954 80.9368 55.0634C77.0228 55.3563 83.4379 56.6009 83.4379 56.6009L134.937 55.9282C134.937 55.9282 116.812 53.3842 117.489 52.0435H117.48Z" fill="#B2DDEE" stroke="#0F2D44" stroke-width="2" stroke-miterlimit="10"/>
<path d="M57.9283 62.5721C58.3627 62.1694 58.605 61.7119 58.605 61.2314C58.605 59.5659 55.7015 58.2115 52.1213 58.2115C51.5451 58.2115 50.2146 59.2639 49.6842 59.3279C49.3595 58.1611 48.3764 56.1845 46.0354 55.8321C45.6147 54.3679 43.6302 53.2606 41.2434 53.2606C39.1401 53.2606 39.1904 54.6745 38.5091 55.8779C37.9101 55.791 35.4227 55.1915 34.7643 55.1915C31.1841 55.1915 28.2806 56.5414 28.2806 58.2115C28.2806 58.8566 28.7149 59.4515 29.4511 59.9411C27.4758 60.4581 26.1406 61.4419 26.1406 62.5721C26.1406 62.5721 30.3016 64.924 21.3853 65.592C17.4713 65.8849 23.8864 67.1294 23.8864 67.1294L75.3859 66.4568C75.3859 66.4568 57.2607 63.9127 57.9374 62.5721H57.9283Z" fill="#B2DDEE" stroke="#0F2D44" stroke-width="2" stroke-miterlimit="10"/>
<path d="M127.535 0.00915527L127.919 41.3502" stroke="#FFFEFB" stroke-width="5" stroke-miterlimit="10"/>
<path d="M143.191 26.1041L128.024 41.3502L112.263 25.6557" stroke="#FFFEFB" stroke-width="5" stroke-miterlimit="10"/>
</g>
<defs>
<clipPath id="clip0_75_4876">
<rect width="144" height="73" fill="white"/>
</clipPath>
</defs>
</svg>
