<svg width="287" height="177" viewBox="0 0 287 177" fill="none" xmlns="http://www.w3.org/2000/svg">
<path d="M110.406 94.8762L22.061 121.527C12.9472 124.273 4.9076 117.693 4.56838 106.724L2.01289 26.57C1.63974 15.0449 9.41928 5.28682 18.9063 4.97563L110.169 1.98598C115.879 1.79705 120.413 8.66545 120.413 17.201V76.9383C120.402 85.1626 115.97 93.198 110.406 94.8762Z" fill="#6AB666" stroke="#0F2D44" stroke-width="3" stroke-miterlimit="10"/>
<path d="M105.047 86.9519L30.994 109.291C23.3501 111.591 16.6222 106.079 16.3282 96.8877L14.1797 29.6929C13.8744 20.0238 20.3876 11.8551 28.3367 11.5883L104.854 9.07657C109.649 8.92097 113.448 14.678 113.448 21.8354V71.9147C113.437 78.8054 109.728 85.5515 105.058 86.9519H105.047Z" fill="#6CA5C2" stroke="#0F2D44" stroke-width="2" stroke-miterlimit="10"/>
<path d="M10.3804 125.951L119.249 94.0648C123.433 92.8423 136.968 98.3103 149.27 106.101L163.676 115.226C175.628 122.794 182.65 130.252 179.337 131.908L94.1123 174.53C88.1759 177.497 68.9645 171.84 51.3022 161.704L29.8971 149.423C11.5225 138.876 2.71394 128.207 10.3804 125.962V125.951Z" fill="#6AB666" stroke="#0F2D44" stroke-width="3" stroke-miterlimit="10"/>
<path d="M284.428 89.5083L272.703 159.081C237.909 171.807 208.781 159.081 208.781 159.081L192.612 89.5083C195.032 87.919 234.676 65.6467 284.428 89.5083Z" fill="#6CA5C2" stroke="#0F2D44" stroke-width="3" stroke-miterlimit="10"/>
<path d="M238.52 98.1993C257.923 98.1993 273.652 95.3282 273.652 91.7865C273.652 88.2449 257.923 85.3738 238.52 85.3738C219.117 85.3738 203.388 88.2449 203.388 91.7865C203.388 95.3282 219.117 98.1993 238.52 98.1993Z" fill="#0F2D44" stroke="#0F2D44" stroke-width="2" stroke-miterlimit="10"/>
<path d="M264.866 72.6817C270.681 72.6817 275.394 68.0491 275.394 62.3346C275.394 56.6201 270.681 51.9875 264.866 51.9875C259.052 51.9875 254.339 56.6201 254.339 62.3346C254.339 68.0491 259.052 72.6817 264.866 72.6817Z" fill="#6CA5C2" stroke="#0F2D44" stroke-width="2" stroke-miterlimit="10"/>
<path d="M227.812 48.998C231.515 48.998 234.517 46.0473 234.517 42.4075C234.517 38.7676 231.515 35.8169 227.812 35.8169C224.109 35.8169 221.107 38.7676 221.107 42.4075C221.107 46.0473 224.109 48.998 227.812 48.998Z" fill="#6CA5C2" stroke="#0F2D44" stroke-width="2" stroke-miterlimit="10"/>
<path d="M270.735 20.8574C273.645 20.8574 276.004 18.5387 276.004 15.6784C276.004 12.818 273.645 10.4993 270.735 10.4993C267.825 10.4993 265.466 12.818 265.466 15.6784C265.466 18.5387 267.825 20.8574 270.735 20.8574Z" fill="#6CA5C2" stroke="#0F2D44" stroke-width="2" stroke-miterlimit="10"/>
<path d="M105.16 155.658C103.905 160.915 93.5695 170.24 84.173 164.483C73.1143 157.714 86.3667 144.344 78.8472 143.455C71.3277 142.566 69.5299 168.672 58.7991 150.89C53.8012 142.599 72.7977 141.966 64.7016 136.309C56.6054 130.652 43.1382 146.722 37.4958 139.876C31.8533 133.03 37.4958 121.049 63.175 121.683C88.8543 122.316 74.132 105.768 89.7928 109.346C105.454 112.914 101.937 121.071 105.454 121.372C114.635 122.15 116.105 119.193 112.657 113.325C109.208 107.457 119.238 99.1215 126.124 104.767C133.01 110.424 135.837 105.656 133.643 114.581C131.45 123.505 130.194 126.484 136.775 124.106C143.356 121.727 158.701 110.936 158.067 121.683C158.067 121.683 160.261 130.874 150.243 134.33C140.224 137.787 138.652 130.896 135.215 134.353C131.766 137.809 132.399 138.376 135.532 143.433C138.664 148.49 137.929 151.046 127.707 150.868C109.852 150.568 121.759 140.754 113.923 141.943C106.087 143.133 105.16 155.625 105.16 155.625V155.658Z" fill="#6CA5C2" stroke="#0F2D44" stroke-width="2" stroke-miterlimit="10"/>
<path d="M238.52 10.7991L104.481 126.74C104.481 126.74 85.4847 127.173 80.532 134.608" stroke="#0F2D44" stroke-width="6" stroke-miterlimit="10"/>
<path d="M93.8861 146.089C95.7971 144.877 94.6098 125.217 104.481 126.74C104.481 126.74 106.969 135.897 128.001 143.999" stroke="#0F2D44" stroke-width="6" stroke-miterlimit="10"/>
<path d="M83.0083 118.526C83.0083 118.526 95.8423 114.681 104.481 126.739" stroke="#0F2D44" stroke-width="6" stroke-miterlimit="10"/>
<path d="M67.3362 129.473C67.3362 129.473 83.9808 117.759 107.421 126.662C107.421 126.662 113.527 122.627 126.316 126.662" stroke="#0F2D44" stroke-width="6" stroke-miterlimit="10"/>
<path d="M107.421 153.869C107.806 151.846 104.481 126.729 104.481 126.729C116.874 130.885 141.163 136.364 141.163 136.364" stroke="#0F2D44" stroke-width="6" stroke-miterlimit="10"/>
<path d="M107.421 126.651C110.214 114.203 102.401 106.89 102.401 106.89" stroke="#0F2D44" stroke-width="6" stroke-miterlimit="10"/>
<path d="M139.026 117.937C139.026 117.937 120.527 118.982 112.555 125.072" stroke="#0F2D44" stroke-width="6" stroke-miterlimit="10"/>
<path d="M193.675 89.3412C193.675 89.3412 211.97 132.541 240.872 132.163C269.774 131.785 282.811 88.7522 282.811 88.7522" stroke="#0F2D44" stroke-width="3" stroke-miterlimit="10"/>
</svg>
