<svg width="124" height="75" viewBox="0 0 124 75" fill="none" xmlns="http://www.w3.org/2000/svg">
<g clip-path="url(#clip0_75_8350)">
<path d="M38.0042 32.2691V67.3067C38.0042 70.9484 35.447 73.9299 32.3162 73.9299H6.76029C3.63483 73.9299 1.07227 70.9484 1.07227 67.3067V32.2691C1.07227 28.6275 3.62946 25.646 6.76029 25.646H12.7914C9.66595 23.2502 7.60733 19.1293 7.60733 14.4495C7.60733 7.05971 12.7539 1.06482 19.1013 1.06482C25.4487 1.06482 30.6007 7.05971 30.6007 14.4495C30.6007 19.1293 28.5367 23.2555 25.4112 25.646H32.3216C35.447 25.646 38.0096 28.6275 38.0096 32.2691H38.0042Z" fill="#6CA5C2" stroke="#0F2D44" stroke-width="4" stroke-miterlimit="10"/>
<path d="M80.4632 32.2691V67.3067C80.4632 70.9484 77.906 73.9299 74.7752 73.9299H49.2193C46.0938 73.9299 43.5312 70.9484 43.5312 67.3067V32.2691C43.5312 28.6275 46.0884 25.646 49.2193 25.646H55.2504C52.1249 23.2502 50.0663 19.1293 50.0663 14.4495C50.0663 7.05971 55.2129 1.06482 61.5603 1.06482C67.9077 1.06482 73.0597 7.05971 73.0597 14.4495C73.0597 19.1293 70.9957 23.2555 67.8702 25.646H74.7805C77.906 25.646 80.4686 28.6275 80.4686 32.2691H80.4632Z" fill="#6CA5C2" stroke="#0F2D44" stroke-width="4" stroke-miterlimit="10"/>
<path d="M122.928 32.2691V67.3067C122.928 70.9484 120.371 73.9299 117.24 73.9299H91.6839C88.5584 73.9299 85.9958 70.9484 85.9958 67.3067V32.2691C85.9958 28.6275 88.553 25.646 91.6839 25.646H97.715C94.5895 23.2502 92.5309 19.1293 92.5309 14.4495C92.5309 7.05971 97.6775 1.06482 104.025 1.06482C110.372 1.06482 115.524 7.05971 115.524 14.4495C115.524 19.1293 113.46 23.2555 110.335 25.646H117.245C120.371 25.646 122.933 28.6275 122.933 32.2691H122.928Z" fill="#6CA5C2" stroke="#0F2D44" stroke-width="4" stroke-miterlimit="10"/>
</g>
<defs>
<clipPath id="clip0_75_8350">
<rect width="124" height="75" fill="white"/>
</clipPath>
</defs>
</svg>
