<svg width="60" height="60" viewBox="0 0 60 60" fill="none" xmlns="http://www.w3.org/2000/svg">
<path d="M45.0179 0C47.0729 0 49.0084 0.394265 50.8244 1.1828C52.6404 1.97133 54.2294 3.0466 55.5914 4.4086C56.9534 5.77061 58.0287 7.35962 58.8172 9.17563C59.6057 10.9916 60 12.9271 60 14.9821V44.9462C60 47.0012 59.6057 48.9486 58.8172 50.7885C58.0287 52.6284 56.9534 54.2294 55.5914 55.5914C54.2294 56.9534 52.6404 58.0287 50.8244 58.8172C49.0084 59.6057 47.0729 60 45.0179 60H14.9821C12.9271 60 10.9916 59.6057 9.17563 58.8172C7.35962 58.0287 5.77061 56.9534 4.4086 55.5914C3.0466 54.2294 1.97133 52.6284 1.1828 50.7885C0.394265 48.9486 0 47.0012 0 44.9462V14.9821C0 12.9271 0.394265 10.9916 1.1828 9.17563C1.97133 7.35962 3.0466 5.77061 4.4086 4.4086C5.77061 3.0466 7.35962 1.97133 9.17563 1.1828C10.9916 0.394265 12.9271 0 14.9821 0H45.0179ZM41.2186 13.1183H34.9104C33.6679 13.1183 32.5209 13.3333 31.4695 13.7634C30.4182 14.1935 29.5102 14.7551 28.7455 15.448C27.9809 16.141 27.3716 16.9415 26.9176 17.8495C26.4636 18.7575 26.2366 19.6655 26.2366 20.5735V24.3728H20.6452V31.828H26.2366V46.8817H33.7634V31.828H39.3548V24.3728H33.7634V22.509C33.7634 21.8877 33.9904 21.4098 34.4444 21.0753C34.8984 20.7407 35.2927 20.5735 35.6272 20.5735H41.2186V13.1183Z" fill="#FFFEFB"/>
</svg>
