<svg width="100" height="100" viewBox="0 0 100 100" fill="none" xmlns="http://www.w3.org/2000/svg">
<path d="M44.2705 42.9859L8.09131 49.9333L12.5618 73.2138L48.7409 66.2664L44.2705 42.9859Z" fill="#EEF0B6" stroke="#0F2D44" stroke-width="3" stroke-miterlimit="10"/>
<path d="M70.3528 14.1705V37.8764H33.5127V14.1705H36.0968V10.5255H51.9349V14.1705H70.3528Z" fill="#EEF0B6" stroke="#0F2D44" stroke-width="3" stroke-miterlimit="10"/>
<path d="M55.4151 45.6976L60.8286 82.1378L87.2479 78.213L81.8344 41.7728L55.4151 45.6976Z" fill="#EEF0B6" stroke="#0F2D44" stroke-width="3" stroke-miterlimit="10"/>
<path d="M44.2725 42.9803L29.7221 60.8378L8.09546 49.9283" stroke="#0F2D44" stroke-width="2" stroke-miterlimit="10"/>
<path d="M12.5664 73.2106L24.1648 58.2409" stroke="#0F2D44" stroke-width="2" stroke-miterlimit="10"/>
<path d="M48.7476 66.2584L33.5127 56.1874" stroke="#0F2D44" stroke-width="2" stroke-miterlimit="10"/>
<path d="M58.7715 49.8085L79.812 46.7281" stroke="#0F2D44" stroke-width="2" stroke-miterlimit="10"/>
<path d="M59.3149 53.4493L80.3554 50.3689" stroke="#0F2D44" stroke-width="2" stroke-miterlimit="10"/>
<path d="M59.854 57.0944L80.8945 54.014" stroke="#0F2D44" stroke-width="2" stroke-miterlimit="10"/>
<path d="M60.3972 60.7352L81.4377 57.6548" stroke="#0F2D44" stroke-width="2" stroke-miterlimit="10"/>
<path d="M60.9363 64.3803L81.9768 61.2999" stroke="#0F2D44" stroke-width="2" stroke-miterlimit="10"/>
<path d="M61.4797 68.0211L82.5202 64.9407" stroke="#0F2D44" stroke-width="2" stroke-miterlimit="10"/>
<path d="M62.0229 71.6661L83.0635 68.5858" stroke="#0F2D44" stroke-width="2" stroke-miterlimit="10"/>
<path d="M62.562 75.3069L83.6025 72.2266" stroke="#0F2D44" stroke-width="2" stroke-miterlimit="10"/>
<path d="M63.1055 78.952L84.146 75.8717" stroke="#0F2D44" stroke-width="2" stroke-miterlimit="10"/>
<path d="M49.7187 96.4373C75.5207 96.4373 96.4373 75.5207 96.4373 49.7187C96.4373 23.9167 75.5207 3 49.7187 3C23.9167 3 3 23.9167 3 49.7187C3 75.5207 23.9167 96.4373 49.7187 96.4373Z" stroke="#FFFEFB" stroke-width="6" stroke-miterlimit="10"/>
<path d="M16.6262 82.6955L78.5156 12.9299" stroke="#FFFEFB" stroke-width="6" stroke-miterlimit="10"/>
</svg>
