<svg width="58" height="58" viewBox="0 0 58 58" fill="none" xmlns="http://www.w3.org/2000/svg">
<path d="M38.8053 29.0346C38.8053 28.2493 38.6898 27.3947 38.4588 26.4707H41.3692V40.4683C41.3692 40.8379 41.2421 41.1382 40.9881 41.3692C40.734 41.6002 40.4221 41.7157 40.0526 41.7157H17.2545C16.8849 41.7157 16.5846 41.6002 16.3536 41.3692C16.1227 41.1382 16.0072 40.8379 16.0072 40.4683V26.4707H18.8483C18.6173 27.3947 18.5018 28.2493 18.5018 29.0346C18.5018 30.4205 18.7674 31.7372 19.2987 32.9845C19.8299 34.2318 20.5575 35.3059 21.4815 36.2067C22.4054 37.1075 23.491 37.8236 24.7384 38.3548C25.9857 38.8861 27.3023 39.1517 28.6882 39.1517C30.0741 39.1517 31.3907 38.8861 32.638 38.3548C33.8853 37.8236 34.9594 37.1075 35.8602 36.2067C36.7611 35.3059 37.4771 34.2318 38.0084 32.9845C38.5396 31.7372 38.8053 30.4205 38.8053 29.0346ZM28.6882 35.3405C27.8104 35.3405 26.9789 35.1788 26.1935 34.8554C25.4082 34.5321 24.7268 34.0816 24.1493 33.5042C23.5719 32.9267 23.1215 32.2569 22.7981 31.4946C22.4747 30.7324 22.313 29.9124 22.313 29.0346C22.313 28.1569 22.4747 27.3254 22.7981 26.54C23.1215 25.7547 23.5719 25.0733 24.1493 24.4958C24.7268 23.9184 25.4082 23.4679 26.1935 23.1446C26.9789 22.8212 27.8104 22.6595 28.6882 22.6595C29.5659 22.6595 30.3859 22.8212 31.1481 23.1446C31.9104 23.4679 32.5802 23.9184 33.1577 24.4958C33.7352 25.0733 34.1856 25.7547 34.509 26.54C34.8323 27.3254 34.994 28.1569 34.994 29.0346C34.994 29.9124 34.8323 30.7324 34.509 31.4946C34.1856 32.2569 33.7352 32.9267 33.1577 33.5042C32.5802 34.0816 31.9104 34.5321 31.1481 34.8554C30.3859 35.1788 29.5659 35.3405 28.6882 35.3405ZM40.0526 16.3536C40.4221 16.3536 40.734 16.4691 40.9881 16.7001C41.2421 16.9311 41.3692 17.2314 41.3692 17.601V21.4122C41.3692 21.7818 41.2421 22.082 40.9881 22.313C40.734 22.544 40.4221 22.6595 40.0526 22.6595H36.2413C35.8718 22.6595 35.5715 22.544 35.3405 22.313C35.1095 22.082 34.994 21.7818 34.994 21.4122V17.601C34.994 17.2314 35.1095 16.9311 35.3405 16.7001C35.5715 16.4691 35.8718 16.3536 36.2413 16.3536H40.0526ZM43.448 0C45.4345 0 47.317 0.381123 49.0956 1.14337C50.8742 1.90562 52.4217 2.94504 53.7384 4.26165C55.055 5.57826 56.0944 7.1143 56.8566 8.86977C57.6189 10.6252 58 12.4962 58 14.4827V43.448C58 45.4345 57.6189 47.317 56.8566 49.0956C56.0944 50.8742 55.055 52.4217 53.7384 53.7384C52.4217 55.055 50.8742 56.0944 49.0956 56.8566C47.317 57.6189 45.4345 58 43.448 58H14.4827C12.4962 58 10.6252 57.6189 8.86977 56.8566C7.1143 56.0944 5.57826 55.055 4.26165 53.7384C2.94504 52.4217 1.90562 50.8742 1.14337 49.0956C0.381123 47.317 0 45.4345 0 43.448V14.4827C0 12.4962 0.381123 10.6252 1.14337 8.86977C1.90562 7.1143 2.94504 5.57826 4.26165 4.26165C5.57826 2.94504 7.1143 1.90562 8.86977 1.14337C10.6252 0.381123 12.4962 0 14.4827 0H43.448ZM45.1804 16.3536C45.1804 15.2911 44.8108 14.3903 44.0717 13.6511C43.3325 12.912 42.4317 12.5424 41.3692 12.5424H16.0072C14.9446 12.5424 14.0438 12.912 13.3047 13.6511C12.5655 14.3903 12.1959 15.2911 12.1959 16.3536V41.7157C12.1959 42.7782 12.5655 43.679 13.3047 44.4182C14.0438 45.1573 14.9446 45.5269 16.0072 45.5269H41.3692C42.4317 45.5269 43.3325 45.1573 44.0717 44.4182C44.8108 43.679 45.1804 42.7782 45.1804 41.7157V16.3536Z" fill="#FFFEFB"/>
</svg>
