<svg width="632" height="330" viewBox="0 0 632 330" fill="none" xmlns="http://www.w3.org/2000/svg">
<path d="M331.91 328.079C422.203 328.079 495.4 254.882 495.4 164.589C495.4 74.2956 422.203 1.09863 331.91 1.09863C241.617 1.09863 168.42 74.2956 168.42 164.589C168.42 254.882 241.617 328.079 331.91 328.079Z" fill="#6CA5C2" stroke="#0F2D44" stroke-width="2" stroke-miterlimit="10"/>
<path d="M320.97 1.09871C320.97 1.09871 297.71 58.0187 324.03 52.5087C350.35 46.9987 380.33 35.3687 385.84 56.1787C391.35 76.9887 398.69 103.909 407.87 102.079C417.05 100.249 463.64 104.969 464.52 68.9487C464.52 68.9487 426.53 -2.00129 320.97 1.09871Z" fill="#6AB666" stroke="#0F2D44" stroke-width="2" stroke-miterlimit="10"/>
<path d="M179.59 223.949C179.59 223.949 216.32 255.539 234.68 255.539C253.04 255.539 227.34 215.759 221.83 201.069C216.32 186.379 252.43 184.549 257.33 174.139C262.23 163.729 249.99 141.089 238.36 130.689C226.73 120.289 232.85 119.059 227.34 95.1888C221.83 71.3188 196.42 72.9087 195.47 74.3487C195.47 74.3487 148.1 136.639 179.6 223.949H179.59Z" fill="#6AB666" stroke="#0F2D44" stroke-width="2" stroke-miterlimit="10"/>
<path d="M390.76 314.899C373.96 317.949 345.45 293.129 345.45 293.129C345.45 291.539 274.26 250.859 307.92 232.899C341.58 214.939 340.48 212.819 338 198.029C335.52 183.239 354.83 152.059 370.28 170.029C385.73 187.999 418.29 237.129 428.78 226.039C439.27 214.939 467.67 196.509 475.69 211.249C483.71 225.989 482.58 228.879 482.58 228.879C482.58 228.879 454.77 303.289 390.76 314.919V314.899Z" fill="#6AB666" stroke="#0F2D44" stroke-width="2" stroke-miterlimit="10"/>
<path d="M291.97 91.9286C295.29 88.8186 297.17 85.3186 297.17 81.6086C297.17 68.7886 274.84 58.3986 247.3 58.3986C242.88 58.3986 232.62 66.4886 228.54 66.9886C226.04 57.9986 218.49 42.8086 200.45 40.0886C197.23 28.8386 181.94 20.3086 163.57 20.3086C147.38 20.3086 147.78 31.1686 142.52 40.4386C137.89 39.7786 118.78 35.1786 113.69 35.1786C86.1404 35.1786 63.8204 45.5686 63.8204 58.3886C63.8204 63.3386 67.1504 67.9186 72.8204 71.6786C57.6204 75.6586 47.3504 83.2286 47.3504 91.9186C47.3504 91.9186 79.3804 109.989 10.7404 115.129C-19.3796 117.379 29.9704 126.959 29.9704 126.959L426.22 121.799C426.22 121.799 286.78 102.239 291.97 91.9186V91.9286Z" fill="#B2DDEE" stroke="#0F2D44" stroke-width="2" stroke-miterlimit="10"/>
<path d="M549.8 234.179C551.83 232.279 552.97 230.149 552.97 227.889C552.97 220.079 539.36 213.739 522.57 213.739C519.88 213.739 513.62 218.669 511.14 218.979C509.62 213.499 505.02 204.239 494.02 202.589C492.05 195.729 482.74 190.539 471.54 190.539C461.67 190.539 461.92 197.159 458.71 202.809C455.89 202.409 444.24 199.599 441.14 199.599C424.35 199.599 410.74 205.929 410.74 213.749C410.74 216.759 412.77 219.559 416.23 221.849C406.97 224.269 400.7 228.889 400.7 234.189C400.7 234.189 420.22 245.199 378.39 248.339C360.03 249.709 390.11 255.549 390.11 255.549L631.63 252.409C631.63 252.409 546.64 240.489 549.81 234.189L549.8 234.179Z" fill="#B2DDEE" stroke="#0F2D44" stroke-width="2" stroke-miterlimit="10"/>
<path d="M441.3 52.7687L453.25 6.14868L466.24 53.0487L513.14 66.0387L466.52 77.9887L454.57 124.609L441.58 77.7087L394.68 64.7187L441.3 52.7687Z" fill="#EEF0B6" stroke="#0F2D44" stroke-width="2" stroke-miterlimit="10"/>
<path d="M258.67 265.969L265.36 239.869L272.64 266.129L298.89 273.399L272.79 280.089L266.1 306.189L258.83 279.939L232.58 272.659L258.67 265.969Z" fill="#EEF0B6" stroke="#0F2D44" stroke-width="2" stroke-miterlimit="10"/>
</svg>
