<svg width="182" height="93" viewBox="0 0 182 93" fill="none" xmlns="http://www.w3.org/2000/svg">
<g clip-path="url(#clip0_72_12229)">
<path d="M89.7605 91.8284C114.094 91.8284 133.82 71.9309 133.82 47.3861C133.82 22.8413 114.094 2.94385 89.7605 2.94385C65.4271 2.94385 45.7009 22.8413 45.7009 47.3861C45.7009 71.9309 65.4271 91.8284 89.7605 91.8284Z" fill="#6CA5C2" stroke="#0F2D44" stroke-width="4" stroke-miterlimit="10"/>
<path d="M86.813 2.94398C86.813 2.94398 80.5427 18.4207 87.6394 16.9225C94.7361 15.4244 102.815 12.265 104.295 17.9193C105.774 23.5737 107.756 30.8953 110.23 30.394C112.703 29.8926 125.261 31.1809 125.498 21.3878C125.498 21.3878 115.258 2.09874 86.813 2.94398Z" fill="#6AB666" stroke="#0F2D44" stroke-width="2" stroke-miterlimit="10"/>
<path d="M48.7116 63.5215C48.7116 63.5215 58.6112 72.108 63.558 72.108C68.5049 72.108 61.5816 61.2948 60.0964 57.3017C58.6112 53.3087 68.3431 52.8074 69.6607 49.9802C70.9784 47.153 67.6843 40.9973 64.5463 38.1701C61.414 35.3429 63.061 35.0106 61.5758 28.5227C60.0906 22.0347 53.2424 22.4661 52.9881 22.8566C52.9881 22.8566 40.2222 39.7906 48.7116 63.5215Z" fill="#6AB666" stroke="#0F2D44" stroke-width="2" stroke-miterlimit="10"/>
<path d="M105.624 88.2434C101.099 89.0711 93.4128 82.3266 93.4128 82.3266C93.4128 81.8953 74.2264 70.8372 83.2995 65.9523C92.3726 61.0673 92.0779 60.4961 91.4075 56.4739C90.7371 52.4517 95.9441 43.976 100.105 48.8609C104.272 53.7458 113.044 67.1006 115.87 64.0869C118.696 61.0732 126.354 56.06 128.515 60.0647C130.676 64.0694 130.37 64.8564 130.37 64.8564C130.37 64.8564 122.875 85.0839 105.624 88.2434Z" fill="#6AB666" stroke="#0F2D44" stroke-width="2" stroke-miterlimit="10"/>
<path d="M78.9997 27.6363C79.8955 26.791 80.404 25.8409 80.404 24.8324C80.404 21.3465 74.388 18.5252 66.9619 18.5252C65.7715 18.5252 63.0033 20.7228 61.9053 20.8627C61.2349 18.4202 59.1949 14.2931 54.3347 13.5528C53.4678 10.4924 49.3474 8.17822 44.3947 8.17822C40.0315 8.17822 40.1413 11.1337 38.7197 13.6519C37.4714 13.4712 32.3222 12.2237 30.9526 12.2237C23.5265 12.2237 17.5105 15.0509 17.5105 18.531C17.5105 19.8775 18.412 21.1192 19.9377 22.1451C15.8404 23.2235 13.0722 25.2871 13.0722 27.648C13.0722 27.648 21.7061 32.562 3.20733 33.9552C-4.91226 34.5673 8.39115 37.173 8.39115 37.173L115.182 35.7681C115.182 35.7681 77.6012 30.4518 79.0055 27.6421L78.9997 27.6363Z" fill="#B2DDEE" stroke="#0F2D44" stroke-width="2" stroke-miterlimit="10"/>
<path d="M148.481 66.302C149.03 65.789 149.337 65.2061 149.337 64.594C149.337 62.4722 145.667 60.7467 141.142 60.7467C140.414 60.7467 138.732 62.0874 138.062 62.1691C137.651 60.6826 136.409 58.1644 133.45 57.7155C132.918 55.8501 130.41 54.4395 127.394 54.4395C124.735 54.4395 124.799 56.2407 123.938 57.7738C123.181 57.663 120.037 56.8994 119.205 56.8994C114.68 56.8994 111.01 58.619 111.01 60.7467C111.01 61.5686 111.559 62.3264 112.489 62.9502C109.993 63.6089 108.305 64.8622 108.305 66.302C108.305 66.302 113.564 69.2982 102.295 70.1493C97.3483 70.5224 105.456 72.1079 105.456 72.1079L170.546 71.251C170.546 71.251 147.638 68.01 148.493 66.302H148.481Z" fill="#B2DDEE" stroke="#0F2D44" stroke-width="2" stroke-miterlimit="10"/>
<path d="M73.2148 79.7151C73.7638 79.2021 74.0701 78.6192 74.0701 78.0071C74.0701 75.8853 70.4004 74.1598 65.8754 74.1598C65.1473 74.1598 63.4655 75.5005 62.7952 75.5821C62.3849 74.0957 61.1424 71.5774 58.1835 71.1286C57.6518 69.2632 55.1437 67.8525 52.127 67.8525C49.4687 67.8525 49.5322 69.6538 48.6712 71.1869C47.9141 71.0761 44.7703 70.3125 43.9381 70.3125C39.4131 70.3125 35.7434 72.0321 35.7434 74.1598C35.7434 74.9817 36.2924 75.7395 37.2228 76.3633C34.7263 77.022 33.0388 78.2753 33.0388 79.7151C33.0388 79.7151 38.2977 82.7113 27.0286 83.5624C22.0817 83.9355 30.1897 85.521 30.1897 85.521L95.2793 84.6641C95.2793 84.6641 72.3711 81.4231 73.2264 79.7151H73.2148Z" fill="#B2DDEE" stroke="#0F2D44" stroke-width="2" stroke-miterlimit="10"/>
<path d="M161.19 0.0117188L161.675 52.6791" stroke="#0F2D44" stroke-width="5" stroke-miterlimit="10"/>
<path d="M180.977 33.2558L161.808 52.6789L141.887 32.6846" stroke="#0F2D44" stroke-width="5" stroke-miterlimit="10"/>
</g>
<defs>
<clipPath id="clip0_72_12229">
<rect width="182" height="93" fill="white"/>
</clipPath>
</defs>
</svg>
