<svg width="60" height="59" viewBox="0 0 60 59" fill="none" xmlns="http://www.w3.org/2000/svg">
<path d="M45.0179 0C47.0729 0 49.0084 0.387694 50.8244 1.16308C52.6404 1.93847 54.2294 2.99582 55.5914 4.33513C56.9534 5.67443 58.0287 7.23696 58.8172 9.0227C59.6057 10.8084 60 12.7117 60 14.7324V44.1971C60 46.2178 59.6057 48.1328 58.8172 49.9421C58.0287 51.7513 56.9534 53.3256 55.5914 54.6649C54.2294 56.0042 52.6404 57.0615 50.8244 57.8369C49.0084 58.6123 47.0729 59 45.0179 59H14.9821C12.9271 59 10.9916 58.6123 9.17563 57.8369C7.35962 57.0615 5.77061 56.0042 4.4086 54.6649C3.0466 53.3256 1.97133 51.7513 1.1828 49.9421C0.394265 48.1328 0 46.2178 0 44.1971V14.7324C0 12.7117 0.394265 10.8084 1.1828 9.0227C1.97133 7.23696 3.0466 5.67443 4.4086 4.33513C5.77061 2.99582 7.35962 1.93847 9.17563 1.16308C10.9916 0.387694 12.9271 0 14.9821 0H45.0179ZM20.6452 22.1338H13.1183V46.1004H20.6452V22.1338ZM16.9176 20.2306C17.9211 20.2306 18.7933 19.8781 19.5341 19.1732C20.2748 18.4683 20.6452 17.599 20.6452 16.5651C20.6452 15.5313 20.2748 14.6619 19.5341 13.957C18.7933 13.2521 17.9211 12.8996 16.9176 12.8996C15.8662 12.8996 14.9701 13.2521 14.2294 13.957C13.4887 14.6619 13.1183 15.5313 13.1183 16.5651C13.1183 17.599 13.4887 18.4683 14.2294 19.1732C14.9701 19.8781 15.8662 20.2306 16.9176 20.2306ZM46.8817 32.2139C46.8817 30.5221 46.4038 28.8656 45.448 27.2443C44.4922 25.6231 43.2497 24.3895 41.7204 23.5436C40.3345 22.7917 38.7216 22.3923 36.8817 22.3453C35.0418 22.2983 33.3811 22.6037 31.8996 23.2616V22.1338H24.3728V46.1004H31.8996V31.4385L34.9821 29.9582C35.3644 29.7702 35.8901 29.6762 36.5591 29.6762C37.2282 29.6762 37.73 29.7937 38.0645 30.0287C38.3513 30.1697 38.638 30.4751 38.9247 30.945C39.2115 31.415 39.3548 31.8379 39.3548 32.2139V46.1004H46.8817V32.2139Z" fill="#FFFEFB"/>
</svg>
