<svg width="315" height="162" viewBox="0 0 315 162" fill="none" xmlns="http://www.w3.org/2000/svg">
<g clip-path="url(#clip0_71_1904)">
<path d="M287.684 85.652L250.406 142.893C215.087 140.903 194.608 118.506 194.608 118.506L207.536 50.6268C210.264 50.1406 253.53 45.5053 287.695 85.652H287.684Z" fill="#6CA5C2" stroke="#0F2D44" stroke-width="3" stroke-miterlimit="10"/>
<path d="M277.391 83.5408C278.77 80.3945 266.152 71.8425 249.209 64.4393C232.266 57.0361 217.414 53.5852 216.035 56.7314C214.657 59.8777 227.275 68.4297 244.218 75.8329C261.161 83.2361 276.013 86.687 277.391 83.5408Z" fill="#0F2D44" stroke="#0F2D44" stroke-width="2" stroke-miterlimit="10"/>
<path d="M126.85 7.85514L2.31317 79.6636L48.5794 159.696L173.116 87.8873L126.85 7.85514Z" fill="#EEF0B6" stroke="#0F2D44" stroke-width="3" stroke-miterlimit="10"/>
<path d="M126.856 7.84619L96.0305 92.2097L2.32068 79.6603" stroke="#0F2D44" stroke-width="2" stroke-miterlimit="10"/>
<path d="M48.5869 159.682L72.2012 89.7334" stroke="#0F2D44" stroke-width="2" stroke-miterlimit="10"/>
<path d="M173.111 87.8791L104.057 70.2422" stroke="#0F2D44" stroke-width="2" stroke-miterlimit="10"/>
<path d="M284.197 58.0772C290.018 58.0772 294.737 53.3647 294.737 47.5515C294.737 41.7384 290.018 37.0259 284.197 37.0259C278.377 37.0259 273.658 41.7384 273.658 47.5515C273.658 53.3647 278.377 58.0772 284.197 58.0772Z" fill="#6CA5C2" stroke="#0F2D44" stroke-width="2" stroke-miterlimit="10"/>
<path d="M258.308 20.8588C262.015 20.8588 265.021 17.8572 265.021 14.1545C265.021 10.4518 262.015 7.4502 258.308 7.4502C254.6 7.4502 251.595 10.4518 251.595 14.1545C251.595 17.8572 254.6 20.8588 258.308 20.8588Z" fill="#6CA5C2" stroke="#0F2D44" stroke-width="2" stroke-miterlimit="10"/>
<path d="M308.593 11.6673C311.506 11.6673 313.868 9.30855 313.868 6.39885C313.868 3.48915 311.506 1.13037 308.593 1.13037C305.679 1.13037 303.317 3.48915 303.317 6.39885C303.317 9.30855 305.679 11.6673 308.593 11.6673Z" fill="#6CA5C2" stroke="#0F2D44" stroke-width="2" stroke-miterlimit="10"/>
<path d="M208.521 50.8647C208.521 50.8647 207.706 96.1556 233.075 106.862C258.455 117.557 286.563 84.3637 286.563 84.3637" stroke="#0F2D44" stroke-width="3" stroke-miterlimit="10"/>
</g>
<defs>
<clipPath id="clip0_71_1904">
<rect width="315" height="162" fill="white"/>
</clipPath>
</defs>
</svg>
