<svg width="243" height="217" viewBox="0 0 243 217" fill="none" xmlns="http://www.w3.org/2000/svg">
<g clip-path="url(#clip0_71_2031)">
<path d="M51.4798 94.0607L95.2696 128.532L73.0885 156.709L29.2988 122.238L51.4798 94.0607Z" fill="#EEF0B6" stroke="#0F2D44" stroke-width="2" stroke-miterlimit="10"/>
<path d="M51.49 94.0498L58.63 128.16L95.27 128.52" stroke="#0F2D44" stroke-width="2" stroke-miterlimit="10"/>
<path d="M73.09 156.7L67.91 128.53" stroke="#0F2D44" stroke-width="2" stroke-miterlimit="10"/>
<path d="M29.3 122.22L56.77 119.27" stroke="#0F2D44" stroke-width="2" stroke-miterlimit="10"/>
<path d="M91.867 180.649L146.385 169.091L153.823 204.171L99.3043 215.729L91.867 180.649Z" fill="#EEF0B6" stroke="#0F2D44" stroke-width="2" stroke-miterlimit="10"/>
<path d="M91.89 180.66L122.66 197.01L146.41 169.1" stroke="#0F2D44" stroke-width="2" stroke-miterlimit="10"/>
<path d="M153.85 204.18L128.89 190.12" stroke="#0F2D44" stroke-width="2" stroke-miterlimit="10"/>
<path d="M99.33 215.74L114.65 192.75" stroke="#0F2D44" stroke-width="2" stroke-miterlimit="10"/>
<path d="M6.26337 164.511L61.4222 172.47L56.3013 207.962L1.1425 200.004L6.26337 164.511Z" fill="#EEF0B6" stroke="#0F2D44" stroke-width="2" stroke-miterlimit="10"/>
<path d="M6.24997 164.49L29.49 190.45L61.41 172.45" stroke="#0F2D44" stroke-width="2" stroke-miterlimit="10"/>
<path d="M56.29 207.94L37.71 186.14" stroke="#0F2D44" stroke-width="2" stroke-miterlimit="10"/>
<path d="M1.13 199.98L23.44 183.69" stroke="#0F2D44" stroke-width="2" stroke-miterlimit="10"/>
<path d="M91.65 73.7901L181.51 159.78L200.35 139.65L160.06 101.93L240.87 15.6001L226.47 2.12012L145.66 88.4501L109.57 54.6601L91.65 73.7901Z" fill="#6CA5C2" stroke="#0F2D44" stroke-width="3" stroke-miterlimit="10"/>
<path d="M180.11 176.37L200.35 155.64V139.65L180.53 158.86L180.11 176.37L90.72 91.2L91.65 73.79L180.53 158.86L180.11 176.37Z" fill="#EEF0B6"/>
<path d="M180.11 176.37L200.35 155.64V139.65L180.53 158.86L180.11 176.37ZM180.11 176.37L90.72 91.2L91.65 73.79L180.53 158.86L180.11 176.37Z" stroke="#0F2D44" stroke-width="2" stroke-miterlimit="10"/>
<path d="M191.71 164.49C191.8 164.4 191.71 148.02 191.71 148.02" stroke="#0F2D44" stroke-width="2" stroke-miterlimit="10"/>
<path d="M188.38 168.01C188.47 167.92 188.38 151.54 188.38 151.54" stroke="#0F2D44" stroke-width="2" stroke-miterlimit="10"/>
<path d="M176.87 172.21C176.96 172.12 176.87 155.74 176.87 155.74" stroke="#0F2D44" stroke-width="2" stroke-miterlimit="10"/>
<path d="M184.15 172.21C184.24 172.12 184.15 155.74 184.15 155.74" stroke="#0F2D44" stroke-width="2" stroke-miterlimit="10"/>
<path d="M173.36 168.83C173.45 168.74 173.36 152.36 173.36 152.36" stroke="#0F2D44" stroke-width="2" stroke-miterlimit="10"/>
<path d="M169.68 165.39C169.77 165.3 169.68 148.92 169.68 148.92" stroke="#0F2D44" stroke-width="2" stroke-miterlimit="10"/>
<path d="M166.17 162.54C166.26 162.45 166.21 145 166.21 145" stroke="#0F2D44" stroke-width="2" stroke-miterlimit="10"/>
<path d="M162.32 159.78C162.41 159.69 162.36 142.24 162.36 142.24" stroke="#0F2D44" stroke-width="2" stroke-miterlimit="10"/>
<path d="M158.48 155.74C158.57 155.65 158.52 138.2 158.52 138.2" stroke="#0F2D44" stroke-width="2" stroke-miterlimit="10"/>
<path d="M154.43 151.79C154.52 151.7 154.47 134.25 154.47 134.25" stroke="#0F2D44" stroke-width="2" stroke-miterlimit="10"/>
<path d="M150.46 148.44C150.55 148.35 150.5 130.9 150.5 130.9" stroke="#0F2D44" stroke-width="2" stroke-miterlimit="10"/>
<path d="M146.52 144.6C146.61 144.51 146.56 127.06 146.56 127.06" stroke="#0F2D44" stroke-width="2" stroke-miterlimit="10"/>
<path d="M142.58 140.75C142.67 140.66 142.62 123.21 142.62 123.21" stroke="#0F2D44" stroke-width="2" stroke-miterlimit="10"/>
<path d="M138.64 136.91C138.73 136.82 138.68 119.37 138.68 119.37" stroke="#0F2D44" stroke-width="2" stroke-miterlimit="10"/>
<path d="M134.69 133.06C134.78 132.97 134.73 115.52 134.73 115.52" stroke="#0F2D44" stroke-width="2" stroke-miterlimit="10"/>
<path d="M130.75 129.22C130.84 129.13 130.79 111.68 130.79 111.68" stroke="#0F2D44" stroke-width="2" stroke-miterlimit="10"/>
<path d="M126.81 125.37C126.9 125.28 126.85 107.83 126.85 107.83" stroke="#0F2D44" stroke-width="2" stroke-miterlimit="10"/>
<path d="M122.87 121.53C122.96 121.44 122.91 103.99 122.91 103.99" stroke="#0F2D44" stroke-width="2" stroke-miterlimit="10"/>
<path d="M118.93 117.69C119.02 117.6 118.97 100.15 118.97 100.15" stroke="#0F2D44" stroke-width="2" stroke-miterlimit="10"/>
<path d="M114.98 113.84C115.07 113.75 115.02 96.2998 115.02 96.2998" stroke="#0F2D44" stroke-width="2" stroke-miterlimit="10"/>
<path d="M111.04 110C111.13 109.91 111.08 92.46 111.08 92.46" stroke="#0F2D44" stroke-width="2" stroke-miterlimit="10"/>
<path d="M107.1 106.15C107.19 106.06 107.14 88.6099 107.14 88.6099" stroke="#0F2D44" stroke-width="2" stroke-miterlimit="10"/>
<path d="M103.16 102.31C103.25 102.22 103.2 84.77 103.2 84.77" stroke="#0F2D44" stroke-width="2" stroke-miterlimit="10"/>
<path d="M99.21 98.4702C99.3 98.3802 99.25 80.9302 99.25 80.9302" stroke="#0F2D44" stroke-width="2" stroke-miterlimit="10"/>
<path d="M95.27 94.6201C95.36 94.5301 95.31 77.0801 95.31 77.0801" stroke="#0F2D44" stroke-width="2" stroke-miterlimit="10"/>
<path d="M197.38 158.68V142.82" stroke="#0F2D44" stroke-width="2" stroke-miterlimit="10"/>
<path d="M194.66 161.47L194.2 145.61" stroke="#0F2D44" stroke-width="2" stroke-miterlimit="10"/>
</g>
<defs>
<clipPath id="clip0_71_2031">
<rect width="242.99" height="216.93" fill="white" transform="matrix(-1 0 0 1 242.99 0)"/>
</clipPath>
</defs>
</svg>
