<svg width="234" height="275" viewBox="0 0 234 275" fill="none" xmlns="http://www.w3.org/2000/svg">
<path d="M204.983 114.844C204.983 139.615 192.799 161.53 174.092 174.919C169.064 181.493 167.137 187.541 166.423 191.029C166.302 207.341 152.891 220.649 136.529 220.649H125.464C109.021 220.649 95.5705 207.206 95.5705 190.773V189.574C94.371 185.614 91.9315 180.092 86.9987 174.286C68.8172 160.816 57.0107 139.211 57.0107 114.83C57.0107 74.0034 90.139 40.8945 130.99 40.8945C171.841 40.8945 204.969 74.0034 204.969 114.83L204.983 114.844Z" fill="#6CA5C2" stroke="#0F2D44" stroke-width="3" stroke-miterlimit="10"/>
<path d="M159.603 212.985H102.417C99.3654 212.985 96.8914 215.457 96.8914 218.508V224.138C96.8914 227.188 99.3654 229.661 102.417 229.661H159.603C162.655 229.661 165.129 227.188 165.129 224.138V218.508C165.129 215.457 162.655 212.985 159.603 212.985Z" fill="#6AB666" stroke="#0F2D44" stroke-width="3" stroke-miterlimit="10"/>
<path d="M159.603 234.645H102.417C99.3654 234.645 96.8914 237.117 96.8914 240.167V245.798C96.8914 248.848 99.3654 251.32 102.417 251.32H159.603C162.655 251.32 165.129 248.848 165.129 245.798V240.167C165.129 237.117 162.655 234.645 159.603 234.645Z" fill="#6AB666" stroke="#0F2D44" stroke-width="3" stroke-miterlimit="10"/>
<path d="M159.603 256.304H102.417C99.3654 256.304 96.8914 258.776 96.8914 261.826V267.457C96.8914 270.507 99.3654 272.979 102.417 272.979H159.603C162.655 272.979 165.129 270.507 165.129 267.457V261.826C165.129 258.776 162.655 256.304 159.603 256.304Z" fill="#6AB666" stroke="#0F2D44" stroke-width="3" stroke-miterlimit="10"/>
<path d="M117.701 212.985C117.701 212.985 118.105 118.359 85.6643 117.161" stroke="#0F2D44" stroke-width="3" stroke-miterlimit="10"/>
<path d="M144.252 212.985C144.252 212.985 143.848 118.359 176.288 117.161" stroke="#0F2D44" stroke-width="3" stroke-miterlimit="10"/>
<path d="M72.2 40.3823L81.2166 5.22607L91.0149 40.5978L126.394 50.3904L91.2305 59.4017L82.214 94.558L72.4022 59.1862L37.0232 49.3936L72.2 40.3823Z" fill="#EEF0B6" stroke="#0F2D44" stroke-width="2" stroke-miterlimit="10"/>
<path d="M188.445 142.605L195.157 116.46L202.449 142.767L228.771 150.054L202.61 156.748L195.899 182.893L188.607 156.6L162.285 149.313L188.445 142.605Z" fill="#EEF0B6" stroke="#0F2D44" stroke-width="2" stroke-miterlimit="10"/>
<path d="M31.3895 214.251L38.1014 188.106L45.3928 214.413L71.7148 221.7L45.5411 228.394L38.8427 254.553L31.5512 228.246L5.22925 220.959L31.3895 214.251Z" fill="#EEF0B6" stroke="#0F2D44" stroke-width="2" stroke-miterlimit="10"/>
<path d="M97.4844 123.33C97.4844 123.33 108.55 132.826 112.512 127.317C116.474 121.807 120.72 118.75 125.019 122.656C129.319 126.562 124.885 127.694 130.006 130.132C135.128 132.57 132.944 127.505 141.179 126.32C149.414 125.135 145.896 129.862 151.247 129.31C156.584 128.771 155.991 120.73 164.549 123.128" stroke="#0F2D44" stroke-width="2" stroke-miterlimit="10"/>
<path d="M139.171 157.61H122.822C117.768 157.61 113.671 161.702 113.671 166.75C113.671 171.797 117.768 175.889 122.822 175.889H139.171C144.225 175.889 148.322 171.797 148.322 166.75C148.322 161.702 144.225 157.61 139.171 157.61Z" stroke="#0F2D44" stroke-width="2" stroke-miterlimit="10"/>
<path d="M119.466 121.134C119.466 121.134 125.936 139.332 126.394 157.624" stroke="#0F2D44" stroke-width="2" stroke-miterlimit="10"/>
<path d="M136.448 157.611C136.448 157.611 135.855 130.684 141.179 126.307" stroke="#0F2D44" stroke-width="2" stroke-miterlimit="10"/>
</svg>
