<svg width="50" height="58" viewBox="0 0 50 58" fill="none" xmlns="http://www.w3.org/2000/svg">
<ellipse cx="25" cy="28.5" rx="25" ry="25.5" fill="#0C8A0D"/>
<path d="M20.1364 35.5341V34.9545C20.1477 32.9659 20.3239 31.3807 20.6648 30.1989C21.017 29.017 21.5284 28.0625 22.1989 27.3352C22.8693 26.608 23.6761 25.9489 24.6193 25.358C25.3239 24.9034 25.9545 24.4318 26.5114 23.9432C27.0682 23.4545 27.5114 22.9148 27.8409 22.3239C28.1705 21.7216 28.3352 21.0511 28.3352 20.3125C28.3352 19.5284 28.1477 18.8409 27.7727 18.25C27.3977 17.6591 26.892 17.2045 26.2557 16.8864C25.6307 16.5682 24.9375 16.4091 24.1761 16.4091C23.4375 16.4091 22.7386 16.5739 22.0795 16.9034C21.4205 17.2216 20.8807 17.6989 20.4602 18.3352C20.0398 18.9602 19.8125 19.7386 19.7784 20.6705H12.8239C12.8807 18.3977 13.4261 16.5227 14.4602 15.0455C15.4943 13.5568 16.8636 12.4489 18.5682 11.7216C20.2727 10.983 22.1534 10.6136 24.2102 10.6136C26.4716 10.6136 28.4716 10.9886 30.2102 11.7386C31.9489 12.4773 33.3125 13.5511 34.3011 14.9602C35.2898 16.3693 35.7841 18.0682 35.7841 20.0568C35.7841 21.3864 35.5625 22.5682 35.1193 23.6023C34.6875 24.625 34.0795 25.5341 33.2955 26.3295C32.5114 27.1136 31.5852 27.8239 30.517 28.4602C29.6193 28.9943 28.8807 29.5511 28.3011 30.1307C27.733 30.7102 27.3068 31.3807 27.0227 32.142C26.75 32.9034 26.608 33.8409 26.5966 34.9545V35.5341H20.1364ZM23.5114 46.4432C22.375 46.4432 21.4034 46.0455 20.5966 45.25C19.8011 44.4432 19.4091 43.4773 19.4205 42.3523C19.4091 41.2386 19.8011 40.2841 20.5966 39.4886C21.4034 38.6932 22.375 38.2955 23.5114 38.2955C24.5909 38.2955 25.5398 38.6932 26.358 39.4886C27.1761 40.2841 27.5909 41.2386 27.6023 42.3523C27.5909 43.1023 27.392 43.7898 27.0057 44.4148C26.6307 45.0284 26.1364 45.5227 25.5227 45.8977C24.9091 46.2614 24.2386 46.4432 23.5114 46.4432Z" fill="#FFFEFB"/>
</svg>
