<svg width="306" height="182" viewBox="0 0 306 182" fill="none" xmlns="http://www.w3.org/2000/svg">
<g clip-path="url(#clip0_71_1896)">
<path d="M162.564 99.7538L64.1598 26.6454C58.8399 22.693 51.3232 23.8017 47.3708 29.1216L3.85409 87.6956C-0.0982713 93.0155 1.01035 100.532 6.33027 104.485L104.735 177.593C110.055 181.545 117.571 180.437 121.524 175.117L165.041 116.543C168.993 111.223 167.884 103.706 162.564 99.7538Z" fill="#6AB666" stroke="#0F2D44" stroke-width="3" stroke-miterlimit="10"/>
<path d="M135.926 93.5425L64.0109 40.1141C58.691 36.1618 51.1743 37.2704 47.222 42.5903L16.7239 83.6411C12.7715 88.961 13.8801 96.4777 19.2001 100.43L91.1151 153.858C96.4351 157.811 103.952 156.702 107.904 151.382L138.402 110.331C142.355 105.012 141.246 97.4948 135.926 93.5425Z" fill="#6CA5C2" stroke="#0F2D44" stroke-width="2" stroke-miterlimit="10"/>
<path d="M132.31 143.61C135.585 143.61 138.24 140.955 138.24 137.68C138.24 134.405 135.585 131.75 132.31 131.75C129.035 131.75 126.38 134.405 126.38 137.68C126.38 140.955 129.035 143.61 132.31 143.61Z" fill="#0F2D44" stroke="#0F2D44" stroke-width="2" stroke-miterlimit="10"/>
<path d="M303.82 124.24V150.46C303.82 160.43 295.66 168.59 285.69 168.59H227.51C217.54 168.59 209.38 160.43 209.38 150.46V124.24C209.38 119.31 213.84 111.98 214.59 111.55C214.59 111.55 208.2 114.38 174.95 56.4699C140.32 -3.85008 104.61 -9.61008 88.88 103.09L114.25 112.99L106.82 132.04L50.54 110.09L57.98 91.0299L79.31 99.3499C84.84 72.7899 96.81 -12.4601 138.25 3.45992C184.45 21.2099 197.74 102.15 227.51 106.09H285.69C295.66 106.09 303.82 114.25 303.82 124.23V124.24Z" fill="#EEF0B6" stroke="#0F2D44" stroke-width="3" stroke-miterlimit="10"/>
</g>
<defs>
<clipPath id="clip0_71_1896">
<rect width="305.32" height="181.44" fill="white"/>
</clipPath>
</defs>
</svg>
