<svg width="324" height="288" viewBox="0 0 324 288" fill="none" xmlns="http://www.w3.org/2000/svg">
<path d="M258.808 285.3L39.0539 257.848C27.2191 256.37 19.1655 247.973 21.1653 239.21L43.1989 142.198C45.1986 133.418 56.5062 127.455 68.3411 128.932L288.095 156.384C299.93 157.862 307.983 166.26 305.984 175.022L283.95 272.034C281.95 280.814 270.643 286.778 258.808 285.3Z" fill="#6AB666" stroke="#0F2D44" stroke-width="3" stroke-miterlimit="10"/>
<path d="M217.14 265.185L56.5244 245.121C44.6896 243.644 36.6361 235.246 38.6358 226.484L54.0884 158.488C56.0881 149.708 67.3958 143.745 79.2306 145.223L239.847 165.286C251.681 166.764 259.735 175.161 257.735 183.924L242.283 251.919C240.283 260.699 228.975 266.662 217.14 265.185Z" fill="#6CA5C2" stroke="#0F2D44" stroke-width="2" stroke-miterlimit="10"/>
<path d="M280.078 216.835C282.787 220.764 280.678 225.58 275.387 227.597C270.097 229.613 263.589 228.049 260.88 224.119C258.171 220.19 260.28 215.374 265.571 213.358C270.861 211.341 277.369 212.906 280.078 216.835Z" fill="#0F2D44" stroke="#0F2D44" stroke-width="2" stroke-miterlimit="10"/>
<path d="M209.064 1.98683L108.788 15.823L118.097 77.5293L218.373 63.6932L209.064 1.98683Z" fill="#EEF0B6" stroke="#0F2D44" stroke-width="2" stroke-miterlimit="10"/>
<path d="M209.051 1.96411L166.802 47.1149L108.773 15.8206" stroke="#0F2D44" stroke-width="2" stroke-miterlimit="10"/>
<path d="M118.081 77.5226L151.858 39.6042" stroke="#0F2D44" stroke-width="2" stroke-miterlimit="10"/>
<path d="M218.359 63.6658L177.8 35.3618" stroke="#0F2D44" stroke-width="2" stroke-miterlimit="10"/>
<path d="M150.928 69.1283L53.2604 43.3657L35.9264 103.467L133.594 129.229L150.928 69.1283Z" fill="#EEF0B6" stroke="#0F2D44" stroke-width="2" stroke-miterlimit="10"/>
<path d="M150.949 69.1251L93.3018 94.2822L53.2705 43.3594" stroke="#0F2D44" stroke-width="2" stroke-miterlimit="10"/>
<path d="M35.9454 103.462L82.7758 81.6775" stroke="#0F2D44" stroke-width="2" stroke-miterlimit="10"/>
<path d="M133.606 129.228L108.318 87.7278" stroke="#0F2D44" stroke-width="2" stroke-miterlimit="10"/>
<path d="M285.314 55.6573L184.018 57.5005L185.258 119.835L286.555 117.991L285.314 55.6573Z" fill="#EEF0B6" stroke="#0F2D44" stroke-width="2" stroke-miterlimit="10"/>
<path d="M285.314 55.6338L237.538 95.4298L184.017 57.4941" stroke="#0F2D44" stroke-width="2" stroke-miterlimit="10"/>
<path d="M185.272 119.822L223.685 86.198" stroke="#0F2D44" stroke-width="2" stroke-miterlimit="10"/>
<path d="M286.568 117.979L249.991 85.0679" stroke="#0F2D44" stroke-width="2" stroke-miterlimit="10"/>
<path d="M198.197 69.4442L96.9013 71.2874L98.1414 133.621L199.438 131.778L198.197 69.4442Z" fill="#EEF0B6" stroke="#0F2D44" stroke-width="2" stroke-miterlimit="10"/>
<path d="M198.216 69.4207L150.44 109.217L96.9194 71.2809" stroke="#0F2D44" stroke-width="2" stroke-miterlimit="10"/>
<path d="M98.1558 133.609L136.587 99.9849" stroke="#0F2D44" stroke-width="2" stroke-miterlimit="10"/>
<path d="M199.452 131.766L162.875 98.8547" stroke="#0F2D44" stroke-width="2" stroke-miterlimit="10"/>
<path d="M103.296 114.957L2 116.8L3.24014 179.134L104.536 177.291L103.296 114.957Z" fill="#EEF0B6" stroke="#0F2D44" stroke-width="2" stroke-miterlimit="10"/>
<path d="M103.3 114.954L55.5247 154.75L2.00427 116.814" stroke="#0F2D44" stroke-width="2" stroke-miterlimit="10"/>
<path d="M3.24048 179.142L41.672 145.518" stroke="#0F2D44" stroke-width="2" stroke-miterlimit="10"/>
<path d="M104.537 177.299L67.9596 144.388" stroke="#0F2D44" stroke-width="2" stroke-miterlimit="10"/>
<path d="M234.049 107.312L132.753 109.156L133.993 171.49L235.289 169.646L234.049 107.312Z" fill="#EEF0B6" stroke="#0F2D44" stroke-width="2" stroke-miterlimit="10"/>
<path d="M234.048 107.287L186.272 147.065L132.751 109.147" stroke="#0F2D44" stroke-width="2" stroke-miterlimit="10"/>
<path d="M134.006 171.475L172.419 137.851" stroke="#0F2D44" stroke-width="2" stroke-miterlimit="10"/>
<path d="M235.302 169.632L198.707 136.721" stroke="#0F2D44" stroke-width="2" stroke-miterlimit="10"/>
<path d="M140.82 105.907L49.0578 146.978L76.6915 203.445L168.454 162.375L140.82 105.907Z" fill="#EEF0B6" stroke="#0F2D44" stroke-width="2" stroke-miterlimit="10"/>
<path d="M140.823 105.896L114.099 160.818L49.0711 146.979" stroke="#0F2D44" stroke-width="2" stroke-miterlimit="10"/>
<path d="M76.704 203.43L97.5195 157.775" stroke="#0F2D44" stroke-width="2" stroke-miterlimit="10"/>
<path d="M168.474 162.365L121.062 146.509" stroke="#0F2D44" stroke-width="2" stroke-miterlimit="10"/>
<path d="M210.61 159.349L110.121 171.694L118.427 233.531L218.916 221.186L210.61 159.349Z" fill="#EEF0B6" stroke="#0F2D44" stroke-width="2" stroke-miterlimit="10"/>
<path d="M210.614 159.357L167.62 203.864L110.118 171.701" stroke="#0F2D44" stroke-width="2" stroke-miterlimit="10"/>
<path d="M118.426 233.542L152.803 196.128" stroke="#0F2D44" stroke-width="2" stroke-miterlimit="10"/>
<path d="M218.922 221.198L178.818 192.269" stroke="#0F2D44" stroke-width="2" stroke-miterlimit="10"/>
<path d="M304.266 102.349L206.765 128.682L224.483 188.681L321.984 162.348L304.266 102.349Z" fill="#EEF0B6" stroke="#0F2D44" stroke-width="2" stroke-miterlimit="10"/>
<path d="M304.275 102.349L268.589 152.42L206.778 128.689" stroke="#0F2D44" stroke-width="2" stroke-miterlimit="10"/>
<path d="M224.485 188.687L252.754 146.857" stroke="#0F2D44" stroke-width="2" stroke-miterlimit="10"/>
<path d="M322 162.347L277.878 139.381" stroke="#0F2D44" stroke-width="2" stroke-miterlimit="10"/>
</svg>
