<svg width="60" height="60" viewBox="0 0 60 60" fill="none" xmlns="http://www.w3.org/2000/svg">
<path d="M45.0179 0C47.0729 0 49.0084 0.394265 50.8244 1.1828C52.6404 1.97133 54.2294 3.0466 55.5914 4.4086C56.9534 5.77061 58.0287 7.35962 58.8172 9.17563C59.6057 10.9916 60 12.9271 60 14.9821V44.9462C60 47.0012 59.6057 48.9486 58.8172 50.7885C58.0287 52.6284 56.9534 54.2294 55.5914 55.5914C54.2294 56.9534 52.6404 58.0287 50.8244 58.8172C49.0084 59.6057 47.0729 60 45.0179 60H14.9821C12.9271 60 10.9916 59.6057 9.17563 58.8172C7.35962 58.0287 5.77061 56.9534 4.4086 55.5914C3.0466 54.2294 1.97133 52.6284 1.1828 50.7885C0.394265 48.9486 0 47.0012 0 44.9462V14.9821C0 12.9271 0.394265 10.9916 1.1828 9.17563C1.97133 7.35962 3.0466 5.77061 4.4086 4.4086C5.77061 3.0466 7.35962 1.97133 9.17563 1.1828C10.9916 0.394265 12.9271 0 14.9821 0H45.0179ZM25.448 27.2401C25.448 28.3393 25.8065 29.1995 26.5233 29.8208C27.1924 30.4421 28.1481 30.7527 29.3907 30.7527C30.681 30.7527 31.6607 30.4421 32.3298 29.8208C33.0466 29.2473 33.405 28.3871 33.405 27.2401V20.6452C33.405 19.7372 33.0466 18.9486 32.3298 18.2796C31.6607 17.6583 30.7288 17.3477 29.5341 17.3477C28.2915 17.3477 27.3118 17.6344 26.595 18.2079C25.8303 18.7814 25.448 19.5699 25.448 20.5735V27.2401ZM21.5771 30.7527H13.1183V33.0466H15.9857V46.5233H18.7097V33.0466H21.5771V30.7527ZM21.6487 23.2975L25.233 13.1183H22.0789L20.2151 20.0717H20L17.9928 13.1183H14.9104L18.5663 23.5842V30.466H21.6487V23.2975ZM29.6057 34.9104H27.1685V43.7276C27.0729 43.871 26.9534 43.9904 26.81 44.086L26.3799 44.3728C26.0932 44.5161 25.8781 44.5878 25.7348 44.5878C25.4958 44.5878 25.3286 44.54 25.233 44.4444C25.1374 44.3489 25.0896 44.1338 25.0896 43.7993V34.9104H22.6523V44.6595C22.6523 45.3286 22.7957 45.8303 23.0824 46.1649C23.3692 46.5472 23.7754 46.7384 24.3011 46.7384C24.7312 46.7384 25.2091 46.595 25.7348 46.3082C26.1649 46.1171 26.6428 45.7587 27.1685 45.233V46.5233H29.6057V34.9104ZM38.4229 37.7061C38.4229 36.7503 38.2079 36.0096 37.7778 35.4839C37.4433 35.006 36.8698 34.767 36.0573 34.767C35.6272 34.767 35.2449 34.8626 34.9104 35.0538C34.5281 35.1971 34.1936 35.46 33.9068 35.8423V30.7527H31.3979V46.5233H33.9068V45.6631C34.0502 45.8542 34.2055 46.0096 34.3728 46.129C34.54 46.2485 34.7192 46.356 34.9104 46.4516C35.2449 46.595 35.675 46.6667 36.2007 46.6667C36.9176 46.6667 37.4671 46.4516 37.8495 46.0215C38.2318 45.5436 38.4229 44.9223 38.4229 44.1577V37.7061ZM37.5627 30.6093C38.1362 30.6093 38.6619 30.4898 39.1398 30.2509C39.6177 30.0119 40.1434 29.6057 40.7168 29.0323V30.466H43.4409V17.6344H40.7168V27.3835C40.5257 27.6225 40.239 27.8614 39.8566 28.1004C39.5699 28.2437 39.3309 28.3154 39.1398 28.3154C38.8053 28.3154 38.6141 28.2437 38.5663 28.1004C38.4229 27.957 38.3513 27.7419 38.3513 27.4552V17.6344H35.6272V28.3871C35.6272 29.1517 35.7945 29.7013 36.129 30.0358C36.368 30.4182 36.8459 30.6093 37.5627 30.6093ZM46.8817 38.0645C46.8817 36.9176 46.5711 36.0573 45.9498 35.4839C45.3763 34.9104 44.5161 34.6237 43.3692 34.6237C42.27 34.6237 41.3859 34.9343 40.7168 35.5556C40.0478 36.2246 39.7133 37.0609 39.7133 38.0645V43.2258C39.7133 44.3728 40.0239 45.2569 40.6452 45.8781C41.3142 46.5472 42.1744 46.8817 43.2258 46.8817C44.4206 46.8817 45.3286 46.5711 45.9498 45.9498C46.5711 45.3763 46.8817 44.4683 46.8817 43.2258V42.6523H44.3728V43.1541C44.3728 43.871 44.3011 44.325 44.1577 44.5161C43.9665 44.7073 43.6798 44.8029 43.2975 44.8029C42.8196 44.8029 42.5329 44.6834 42.4373 44.4444C42.2939 44.2533 42.2222 43.8232 42.2222 43.1541V41.0036H46.8817V38.0645ZM43.2975 36.6308C43.6798 36.6308 43.9427 36.7503 44.086 36.9892C44.2772 37.1804 44.3728 37.5149 44.3728 37.9928V39.2115H42.2222V37.9928C42.2222 37.5627 42.2939 37.2282 42.4373 36.9892C42.6762 36.7503 42.963 36.6308 43.2975 36.6308ZM34.9104 36.6308C35.2449 36.6308 35.4839 36.7264 35.6272 36.9176C35.8184 37.1087 35.914 37.3955 35.914 37.7778V43.7993C35.914 44.1816 35.8423 44.4444 35.6989 44.5878C35.5556 44.779 35.3405 44.8746 35.0538 44.8746C34.8626 44.8746 34.6714 44.8268 34.4803 44.7312C34.2413 44.6356 34.0502 44.4922 33.9068 44.3011V37.0609C34.098 36.8698 34.2652 36.7503 34.4086 36.7025C34.5042 36.6547 34.6714 36.6308 34.9104 36.6308ZM29.3907 28.5305C29.0084 28.5305 28.7455 28.4349 28.6022 28.2437C28.3632 28.1004 28.2437 27.8375 28.2437 27.4552V20.5018C28.2437 20.2628 28.3632 20.0239 28.6022 19.7849C28.7933 19.6416 29.0562 19.5699 29.3907 19.5699C29.7252 19.5699 30.0358 19.6416 30.3226 19.7849C30.5137 19.9761 30.6093 20.2151 30.6093 20.5018V27.4552C30.6093 27.8375 30.5137 28.1004 30.3226 28.2437C30.1314 28.4349 29.8208 28.5305 29.3907 28.5305Z" fill="#FFFEFB"/>
</svg>
